#N canvas 1368 214 1078 716 10;
#X obj 62 67 inlet data;
#X obj 62 89 rtpparse;
#X obj 208 113 route timestamp marker;
#X obj 283 135 select 1;
#X msg 283 177 1;
#X obj 208 292 timestamp_diff;
#X obj 208 135 t l l;
#X obj 303 213 spigot;
#X obj 303 256 t l l;
#X obj 314 314 t f f;
#X obj 208 314 moses 1024;
#X obj 208 336 moses -1024;
#X obj 346 336 * -1;
#X obj 314 293 / 2;
#X obj 592 97 loadbang;
#X obj 592 151 moses 64;
#X msg 592 173 2048;
#X obj 592 195 t f;
#X obj 282 358 +;
#X obj 375 163 t b b;
#X obj 407 286 i;
#X obj 407 330 % 2048;
#X obj 407 352 t f f;
#X obj 407 308 + 64;
#X obj 375 185 i 64;
#X obj 375 204 timestamp_add;
#X obj 411 185 r \$0-blocksize;
#X obj 432 286 r \$0-blocksize;
#X obj 102 438 list prepend 0;
#X obj 375 137 bang~;
#N canvas 11 49 450 300 \$0-tablefarm 0;
#X obj 100 100 table 1009-samples0 1024;
#X obj 100 130 table 1009-samples1 1024;
#X obj 100 160 table 1009-samples2 1024;
#X obj 100 190 table 1009-samples3 1024;
#X restore 288 41 pd \$0-tablefarm;
#X obj 592 129 i \$2;
#X obj 624 258 i \$1;
#X obj 624 281 moses 1;
#X msg 624 302 2;
#X obj 624 236 t b f b;
#X obj 62 133 t l f;
#X obj 62 155 list split 1;
#X obj 102 460 s;
#X obj 143 418 makefilename \$0-samples%d;
#X obj 62 111 L16decode \$1;
#X msg 661 92 bang;
#N canvas 5 49 700 334 \$0-senders 0;
#X obj 20 50 r 1009-tabplay;
#X obj 150 50 tabplay~ 1009-samples0;
#X obj 350 50 s~ SM1-0;
#X obj 450 50 s 1009-tabplay;
#X obj 20 80 r 1009-tabplay;
#X obj 150 80 tabplay~ 1009-samples1;
#X obj 350 80 s~ SM1-1;
#X obj 450 80 s 1009-tabplay;
#X obj 20 110 r 1009-tabplay;
#X obj 150 110 tabplay~ 1009-samples2;
#X obj 350 110 s~ SM1-2;
#X obj 450 110 s 1009-tabplay;
#X obj 20 140 r 1009-tabplay;
#X obj 150 140 tabplay~ 1009-samples3;
#X obj 350 140 s~ SM1-3;
#X obj 450 140 s 1009-tabplay;
#X connect 0 0 1 0;
#X connect 1 0 2 0;
#X connect 1 1 3 0;
#X connect 4 0 5 0;
#X connect 5 0 6 0;
#X connect 5 1 7 0;
#X connect 8 0 9 0;
#X connect 9 0 10 0;
#X connect 9 1 11 0;
#X connect 12 0 13 0;
#X connect 13 0 14 0;
#X connect 13 1 15 0;
#X restore 411 41 pd \$0-senders;
#N canvas 5 49 450 300 createtables 0;
#X obj 64 -29 until;
#X obj 64 -7 i;
#X obj 64 37 t f f;
#X obj 98 6 + 1;
#X msg 106 -29 0;
#X obj 64 59 t f f;
#X obj 64 81 * 30;
#X obj 64 103 + 100;
#X obj 64 169 s pd-\$0-tablefarm;
#X msg 303 143 clear;
#X obj 64 125 pack 0 0 0 \$0;
#X msg 64 147 obj 100 \$1 table \$4-samples\$2 \$3;
#X obj 64 -51 t f b b;
#X obj 64 -75 inlet channels;
#X obj 175 -75 inlet tabsize;
#X connect 0 0 1 0;
#X connect 1 0 2 0;
#X connect 2 0 5 0;
#X connect 2 1 3 0;
#X connect 3 0 1 1;
#X connect 4 0 1 1;
#X connect 5 0 6 0;
#X connect 5 1 10 1;
#X connect 6 0 7 0;
#X connect 7 0 10 0;
#X connect 9 0 8 0;
#X connect 10 0 11 0;
#X connect 11 0 8 0;
#X connect 12 0 0 0;
#X connect 12 1 4 0;
#X connect 12 2 9 0;
#X connect 13 0 12 0;
#X connect 14 0 10 2;
#X restore 656 368 pd createtables;
#N canvas 1361 443 747 577 createsender 0;
#X obj 93 444 s pd-\$0-senders;
#X obj 93 421 t a;
#X obj 93 17 inlet channels;
#X obj 266 23 inlet sendname;
#X obj 266 70 t s b;
#X msg 310 70 symbol;
#X obj 266 92 select symbol;
#X obj 266 136 t s;
#X msg 572 404 clear;
#X obj 93 103 until;
#X obj 93 125 i;
#X obj 93 147 t f f;
#X obj 123 125 + 1;
#X obj 93 169 t f f;
#X obj 175 187 * 4;
#X text 114 298 <\$1> <y> <SM1-> <\$0> <ID0> <ID1> <ID2> <ID3>;
#X obj 93 272 pack 0 0 s \$0 0 1 2 3;
#X obj 93 202 t f f;
#X obj 125 224 * 30;
#X obj 125 246 + 50;
#X obj 175 209 t f f f f;
#X obj 195 234 + 1;
#X obj 225 234 + 2;
#X obj 255 234 + 3;
#X obj 266 45 symbol;
#X obj 93 39 t f b;
#X obj 93 61 t f b;
#X obj 93 83 t f b;
#X msg 135 103 0;
#X msg 93 315 obj 20 \$2 r \$4-tabplay \, obj 150 \$2 tabplay~ \$4-samples\$1
\, obj 350 \$2 s~ \$3\$1 \, obj 450 \$2 s \$4-tabplay \, connect \$5
0 \$6 0 \, connect \$6 0 \$7 0 \, connect \$6 1 \$8 0;
#X obj 266 114 symbol \$0-;
#X connect 1 0 0 0;
#X connect 2 0 25 0;
#X connect 3 0 24 0;
#X connect 4 0 6 0;
#X connect 4 1 5 0;
#X connect 5 0 6 1;
#X connect 6 0 30 0;
#X connect 6 1 7 0;
#X connect 7 0 16 2;
#X connect 8 0 1 0;
#X connect 9 0 10 0;
#X connect 10 0 11 0;
#X connect 11 0 13 0;
#X connect 11 1 12 0;
#X connect 12 0 10 1;
#X connect 13 0 17 0;
#X connect 13 1 14 0;
#X connect 14 0 20 0;
#X connect 16 0 29 0;
#X connect 17 0 16 0;
#X connect 17 1 18 0;
#X connect 18 0 19 0;
#X connect 19 0 16 1;
#X connect 20 0 16 4;
#X connect 20 1 21 0;
#X connect 20 2 22 0;
#X connect 20 3 23 0;
#X connect 21 0 16 5;
#X connect 22 0 16 6;
#X connect 23 0 16 7;
#X connect 24 0 4 0;
#X connect 25 0 26 0;
#X connect 25 1 8 0;
#X connect 26 0 27 0;
#X connect 26 1 24 0;
#X connect 27 0 9 0;
#X connect 27 1 28 0;
#X connect 28 0 10 1;
#X connect 29 0 1 0;
#X connect 30 0 7 0;
#X restore 624 417 pd createsender;
#X obj 624 323 t f f f;
#X obj 624 397 t f b;
#X obj 726 397 symbol \$3;
#X obj 624 345 t f f;
#X obj 282 380 mod 2048;
#X obj 446 310 t f f;
#X obj 414 265 t f f;
#X obj 592 216 t f f;
#X obj 43 506 outlet~ dummy;
#X obj 457 453 s \$0-tabplay;
#X msg 456 427 bang;
#N canvas 5 49 450 300 TODO:ts2index 0;
#X obj 50 -9 inlet timestampNow;
#X obj 54 209 outlet offset;
#X obj 241 -9 inlet timestampReference;
#X restore 357 481 pd TODO:ts2index;
#X connect 0 0 1 0;
#X connect 1 0 40 0;
#X connect 1 1 2 0;
#X connect 2 0 6 0;
#X connect 2 1 3 0;
#X connect 3 0 4 0;
#X connect 4 0 7 1;
#X connect 5 0 10 0;
#X connect 6 0 5 0;
#X connect 6 1 7 0;
#X connect 7 0 8 0;
#X connect 8 0 5 1;
#X connect 8 1 25 1;
#X connect 9 0 10 1;
#X connect 9 1 12 0;
#X connect 10 0 11 0;
#X connect 11 1 18 0;
#X connect 12 0 11 1;
#X connect 13 0 9 0;
#X connect 14 0 31 0;
#X connect 15 0 16 0;
#X connect 15 1 17 0;
#X connect 16 0 17 0;
#X connect 17 0 52 0;
#X connect 18 0 49 0;
#X connect 19 0 24 0;
#X connect 19 1 20 0;
#X connect 20 0 23 0;
#X connect 21 0 22 0;
#X connect 22 0 18 1;
#X connect 22 1 20 1;
#X connect 23 0 21 0;
#X connect 24 0 25 0;
#X connect 25 0 8 0;
#X connect 26 0 24 1;
#X connect 27 0 23 1;
#X connect 28 0 38 0;
#X connect 29 0 19 0;
#X connect 31 0 15 0;
#X connect 32 0 33 0;
#X connect 33 0 34 0;
#X connect 33 1 45 0;
#X connect 34 0 45 0;
#X connect 35 0 32 0;
#X connect 35 1 43 1;
#X connect 36 0 37 0;
#X connect 36 1 39 0;
#X connect 37 1 28 0;
#X connect 39 0 38 1;
#X connect 40 0 36 0;
#X connect 41 0 31 0;
#X connect 45 0 48 0;
#X connect 46 0 44 0;
#X connect 46 1 47 0;
#X connect 47 0 44 1;
#X connect 48 0 46 0;
#X connect 48 1 43 0;
#X connect 49 0 28 1;
#X connect 50 0 21 1;
#X connect 50 1 49 1;
#X connect 51 0 13 0;
#X connect 51 1 50 0;
#X connect 52 0 51 0;
#X connect 52 1 35 0;
#X connect 55 0 54 0;
