#N canvas 264 224 784 534 10;
#X obj 102 67 inlet data;
#X obj 102 89 rtpparse;
#X obj 102 111 L16decode 1;
#X obj 429 486 outlet~;
#X obj 208 113 route timestamp marker;
#X obj 283 135 select 1;
#X msg 283 177 1;
#X obj 208 283 timestamp_diff;
#X obj 208 135 t l l;
#X obj 303 213 spigot;
#X obj 303 256 t l l;
#X obj 102 420 s \$0-samples;
#X obj 290 305 t f f;
#X obj 208 305 moses 1024;
#X obj 208 327 moses -1024;
#X obj 322 327 * -1;
#X obj 597 290 / 2;
#X msg 630 290 resize \$1;
#X obj 630 312 s \$0-samples;
#X obj 534 87 table \$0-samples 2048;
#X obj 597 157 loadbang;
#X obj 597 179 i \$1;
#X obj 597 201 moses 64;
#X msg 597 223 2048;
#X obj 597 245 t f;
#X obj 597 266 t f f f;
#X obj 282 358 +;
#X obj 375 163 t b b;
#X obj 407 242 i;
#X obj 407 286 % 2048;
#X obj 407 308 t f f;
#X obj 407 264 + 64;
#X obj 375 185 i 64;
#X obj 375 204 timestamp_add;
#X obj 411 185 r \$0-blocksize;
#X obj 441 264 r \$0-blocksize;
#X obj 102 398 list prepend 0;
#X obj 430 422 tabplay~ \$0-samples;
#X obj 571 422 t b;
#X obj 283 157 t b b;
#X obj 375 137 bang~;
#X obj 102 133 route 0;
#X connect 0 0 1 0;
#X connect 1 0 2 0;
#X connect 1 1 4 0;
#X connect 2 0 41 0;
#X connect 4 0 8 0;
#X connect 4 1 5 0;
#X connect 5 0 39 0;
#X connect 6 0 9 1;
#X connect 7 0 13 0;
#X connect 8 0 7 0;
#X connect 8 1 9 0;
#X connect 9 0 10 0;
#X connect 10 0 7 1;
#X connect 10 1 33 1;
#X connect 12 0 13 1;
#X connect 12 1 15 0;
#X connect 13 0 14 0;
#X connect 14 1 26 0;
#X connect 15 0 14 1;
#X connect 16 0 12 0;
#X connect 17 0 18 0;
#X connect 20 0 21 0;
#X connect 21 0 22 0;
#X connect 22 0 23 0;
#X connect 22 1 24 0;
#X connect 23 0 24 0;
#X connect 24 0 25 0;
#X connect 25 0 16 0;
#X connect 25 1 17 0;
#X connect 26 0 36 1;
#X connect 27 0 32 0;
#X connect 27 1 28 0;
#X connect 28 0 31 0;
#X connect 29 0 30 0;
#X connect 30 0 26 1;
#X connect 30 1 28 1;
#X connect 31 0 29 0;
#X connect 32 0 33 0;
#X connect 33 0 10 0;
#X connect 34 0 32 1;
#X connect 35 0 31 1;
#X connect 36 0 11 0;
#X connect 37 0 3 0;
#X connect 37 1 38 0;
#X connect 38 0 37 0;
#X connect 39 0 6 0;
#X connect 39 1 37 0;
#X connect 40 0 27 0;
#X connect 41 0 36 0;
