#N canvas 22 49 1078 716 10;
#X obj 62 67 inlet data;
#X obj 62 89 rtpparse;
#X obj 208 113 route timestamp marker;
#X obj 283 135 select 1;
#X obj 592 97 loadbang;
#X obj 592 151 moses 64;
#X msg 592 173 2048;
#X obj 592 195 t f;
#X obj 102 268 list prepend 0;
#N canvas 14 49 450 300 \$0-tablefarm 0;
#X restore 288 41 pd \$0-tablefarm;
#X obj 592 129 i \$2;
#X obj 624 258 i \$1;
#X obj 624 281 moses 1;
#X msg 624 302 2;
#X obj 624 236 t b f b;
#X obj 62 203 t l f;
#X obj 62 225 list split 1;
#X obj 102 290 s;
#X obj 143 248 makefilename \$0-samples%d;
#X obj 62 111 L16decode \$1;
#X msg 661 92 bang;
#N canvas 7 49 700 334 \$0-senders 0;
#X restore 411 41 pd \$0-senders;
#N canvas 5 49 450 300 createtables 0;
#X obj 64 -29 until;
#X obj 64 -7 i;
#X obj 64 37 t f f;
#X obj 98 6 + 1;
#X msg 106 -29 0;
#X obj 64 59 t f f;
#X obj 64 81 * 30;
#X obj 64 103 + 100;
#X obj 64 169 s pd-\$0-tablefarm;
#X msg 303 143 clear;
#X obj 64 125 pack 0 0 0 \$0;
#X msg 64 147 obj 100 \$1 table \$4-samples\$2 \$3;
#X obj 64 -51 t f b b;
#X obj 64 -75 inlet channels;
#X obj 175 -75 inlet tabsize;
#X connect 0 0 1 0;
#X connect 1 0 2 0;
#X connect 2 0 5 0;
#X connect 2 1 3 0;
#X connect 3 0 1 1;
#X connect 4 0 1 1;
#X connect 5 0 6 0;
#X connect 5 1 10 1;
#X connect 6 0 7 0;
#X connect 7 0 10 0;
#X connect 9 0 8 0;
#X connect 10 0 11 0;
#X connect 11 0 8 0;
#X connect 12 0 0 0;
#X connect 12 1 4 0;
#X connect 12 2 9 0;
#X connect 13 0 12 0;
#X connect 14 0 10 2;
#X restore 656 368 pd createtables;
#N canvas 1363 435 747 577 createsender 0;
#X obj 93 444 s pd-\$0-senders;
#X obj 93 421 t a;
#X obj 93 17 inlet channels;
#X obj 266 23 inlet sendname;
#X obj 266 70 t s b;
#X msg 310 70 symbol;
#X obj 266 92 select symbol;
#X obj 266 136 t s;
#X msg 572 404 clear;
#X obj 93 103 until;
#X obj 93 125 i;
#X obj 93 147 t f f;
#X obj 123 125 + 1;
#X obj 93 169 t f f;
#X obj 175 187 * 4;
#X text 114 298 <\$1> <y> <SM1-> <\$0> <ID0> <ID1> <ID2> <ID3>;
#X obj 93 272 pack 0 0 s \$0 0 1 2 3;
#X obj 93 202 t f f;
#X obj 125 224 * 30;
#X obj 125 246 + 50;
#X obj 175 209 t f f f f;
#X obj 195 234 + 1;
#X obj 225 234 + 2;
#X obj 255 234 + 3;
#X obj 266 45 symbol;
#X obj 93 39 t f b;
#X obj 93 61 t f b;
#X obj 93 83 t f b;
#X msg 135 103 0;
#X msg 93 315 obj 20 \$2 r \$4-tabplay \, obj 150 \$2 tabplay~ \$4-samples\$1
\, obj 350 \$2 s~ \$3\$1 \, obj 450 \$2 s \$4-tabplay \, connect \$5
0 \$6 0 \, connect \$6 0 \$7 0 \, connect \$6 1 \$8 0;
#X obj 266 114 symbol \$0-;
#X connect 1 0 0 0;
#X connect 2 0 25 0;
#X connect 3 0 24 0;
#X connect 4 0 6 0;
#X connect 4 1 5 0;
#X connect 5 0 6 1;
#X connect 6 0 30 0;
#X connect 6 1 7 0;
#X connect 7 0 16 2;
#X connect 8 0 1 0;
#X connect 9 0 10 0;
#X connect 10 0 11 0;
#X connect 11 0 13 0;
#X connect 11 1 12 0;
#X connect 12 0 10 1;
#X connect 13 0 17 0;
#X connect 13 1 14 0;
#X connect 14 0 20 0;
#X connect 16 0 29 0;
#X connect 17 0 16 0;
#X connect 17 1 18 0;
#X connect 18 0 19 0;
#X connect 19 0 16 1;
#X connect 20 0 16 4;
#X connect 20 1 21 0;
#X connect 20 2 22 0;
#X connect 20 3 23 0;
#X connect 21 0 16 5;
#X connect 22 0 16 6;
#X connect 23 0 16 7;
#X connect 24 0 4 0;
#X connect 25 0 26 0;
#X connect 25 1 8 0;
#X connect 26 0 27 0;
#X connect 26 1 24 0;
#X connect 27 0 9 0;
#X connect 27 1 28 0;
#X connect 28 0 10 1;
#X connect 29 0 1 0;
#X connect 30 0 7 0;
#X restore 624 487 pd createsender;
#X obj 624 397 t f b;
#X obj 624 345 t f f;
#X obj 592 216 t f f;
#X obj 43 506 outlet~ dummy;
#X obj 367 211 s \$0-tabplay;
#X msg 367 185 bang;
#X obj 517 237 s \$0-tablesize;
#X obj 786 49 inlet timestampSync;
#X obj 472 506 outlet timestampNow;
#X obj 208 135 t l l;
#X obj 283 157 t a b;
#X msg 701 234 0;
#X obj 624 323 t f;
#N canvas 7 49 777 551 ts2index 0;
#X obj 50 -9 inlet timestampNow;
#X obj 241 -9 inlet timestampReference;
#X msg 184 30 1;
#X obj 50 252 timestamp_diff;
#X obj 50 25 t l l;
#X obj 145 53 spigot;
#X obj 145 216 t l l;
#X obj 156 274 t f f;
#X obj 50 274 moses 1024;
#X obj 50 296 moses -1024;
#X obj 188 296 * -1;
#X obj 156 253 / 2;
#X obj 124 318 +;
#X obj 217 123 t b b;
#X obj 249 246 i;
#X obj 249 290 % 2048;
#X obj 249 312 t f f;
#X obj 249 268 + 64;
#X obj 217 145 i 64;
#X obj 217 164 timestamp_add;
#X obj 253 145 r \$0-blocksize;
#X obj 274 246 r \$0-blocksize;
#X obj 217 97 bang~;
#X obj 124 340 mod 2048;
#X obj 288 270 t f f;
#X obj 256 225 t f f;
#X obj 241 13 route bang;
#X obj 145 75 t l;
#X obj 256 201 r \$0-tablesize;
#X obj 124 362 outlet index;
#X connect 0 0 4 0;
#X connect 1 0 26 0;
#X connect 2 0 5 1;
#X connect 3 0 8 0;
#X connect 4 0 3 0;
#X connect 4 1 5 0;
#X connect 5 0 27 0;
#X connect 6 0 3 1;
#X connect 6 1 19 1;
#X connect 7 0 8 1;
#X connect 7 1 10 0;
#X connect 8 0 9 0;
#X connect 9 1 12 0;
#X connect 10 0 9 1;
#X connect 11 0 7 0;
#X connect 12 0 23 0;
#X connect 13 0 18 0;
#X connect 13 1 14 0;
#X connect 14 0 17 0;
#X connect 15 0 16 0;
#X connect 16 0 12 1;
#X connect 16 1 14 1;
#X connect 17 0 15 0;
#X connect 18 0 19 0;
#X connect 19 0 6 0;
#X connect 20 0 18 1;
#X connect 21 0 17 1;
#X connect 22 0 13 0;
#X connect 23 0 29 0;
#X connect 24 0 15 1;
#X connect 24 1 23 1;
#X connect 25 0 11 0;
#X connect 25 1 24 0;
#X connect 26 0 2 0;
#X connect 26 1 27 0;
#X connect 27 0 6 0;
#X connect 28 0 25 0;
#X restore 208 212 pd ts2index;
#X obj 726 397 list prepend \$3;
#X obj 726 419 route float;
#X msg 726 441 symbol \$1-;
#X obj 726 463 t s;
#X connect 0 0 1 0;
#X connect 1 0 19 0;
#X connect 1 1 2 0;
#X connect 2 0 33 0;
#X connect 2 1 3 0;
#X connect 3 0 34 0;
#X connect 4 0 10 0;
#X connect 5 0 6 0;
#X connect 5 1 7 0;
#X connect 6 0 7 0;
#X connect 7 0 26 0;
#X connect 8 0 17 0;
#X connect 10 0 5 0;
#X connect 11 0 12 0;
#X connect 12 0 13 0;
#X connect 12 1 36 0;
#X connect 13 0 36 0;
#X connect 14 0 11 0;
#X connect 14 1 22 1;
#X connect 15 0 16 0;
#X connect 15 1 18 0;
#X connect 16 1 8 0;
#X connect 18 0 17 1;
#X connect 19 0 15 0;
#X connect 20 0 10 0;
#X connect 24 0 23 0;
#X connect 24 1 38 0;
#X connect 25 0 24 0;
#X connect 25 1 22 0;
#X connect 26 0 30 0;
#X connect 26 1 14 0;
#X connect 29 0 28 0;
#X connect 31 0 34 0;
#X connect 33 0 37 0;
#X connect 33 1 32 0;
#X connect 34 0 37 1;
#X connect 34 1 29 0;
#X connect 35 0 36 0;
#X connect 36 0 25 0;
#X connect 37 0 8 1;
#X connect 38 0 39 0;
#X connect 39 0 40 0;
#X connect 39 1 41 0;
#X connect 40 0 41 0;
#X connect 41 0 23 1;
