#N canvas 247 49 998 657 10;
#X obj 35 27 inlet data;
#X obj 102 89 rtpparse;
#X obj 208 113 route timestamp marker;
#X obj 283 135 select 1;
#X msg 283 177 1;
#X obj 208 283 timestamp_diff;
#X obj 208 135 t l l;
#X obj 303 213 spigot;
#X obj 303 256 t l l;
#X obj 290 305 t f f;
#X obj 208 305 moses 1024;
#X obj 208 327 moses -1024;
#X obj 322 327 * -1;
#X obj 597 290 / 2;
#X obj 676 622 s \$0-samples;
#X obj 597 147 loadbang;
#X obj 597 201 moses 64;
#X msg 597 223 2048;
#X obj 597 245 t f;
#X obj 282 358 +;
#X obj 375 163 t b b;
#X obj 407 242 i;
#X obj 407 286 % 2048;
#X obj 407 308 t f f;
#X obj 407 264 + 64;
#X obj 375 185 i 64;
#X obj 375 204 timestamp_add;
#X obj 411 185 r \$0-blocksize;
#X obj 441 264 r \$0-blocksize;
#X obj 102 438 list prepend 0;
#X obj 375 137 bang~;
#X obj 35 49 route bang;
#N canvas 9 49 450 300 \$0-tablefarm 1;
#X obj 100 100 table 1003-samples0 4096;
#X obj 100 130 table 1003-samples1 4096;
#X obj 100 160 table 1003-samples2 4096;
#X obj 100 190 table 1003-samples3 4096;
#X restore 358 61 pd \$0-tablefarm;
#X obj 597 179 i \$2;
#X obj 683 233 i \$1;
#X obj 683 256 moses 1;
#X msg 683 277 2;
#X obj 683 351 until;
#X obj 683 329 t f b;
#X obj 683 373 i;
#X obj 683 417 t f f;
#X obj 717 386 + 1;
#X msg 725 351 0;
#X obj 683 439 t f f;
#X obj 683 461 * 30;
#X obj 683 483 + 100;
#X obj 683 549 s pd-\$0-tablefarm;
#X msg 922 523 clear;
#X obj 683 211 t b f b;
#X obj 683 505 pack 0 0 0 \$0;
#X obj 36 501 until;
#X obj 36 479 t f b;
#X obj 36 523 i;
#X obj 36 557 t f f;
#X obj 70 536 + 1;
#X msg 78 501 0;
#X obj 35 456 i \$1;
#X obj 684 304 t f f;
#X obj 35 434 t b;
#X obj 36 579 pack 0 \$0;
#X obj 36 623 outlet;
#X obj 62 133 t l f;
#X obj 62 155 list split 1;
#X obj 102 460 s;
#X obj 143 418 makefilename \$0-samples%d;
#X msg 36 601 \$1 \$2-samples\$1;
#X msg 683 527 obj 100 \$1 table \$4-samples\$2 \$3;
#X obj 377 473 spigot;
#X obj 377 495 print;
#X obj 443 471 tgl 15 0 empty empty empty 17 7 0 10 -262144 -1 -1 0
1;
#X obj 102 111 L16decode \$1;
#X obj 597 266 t f f f;
#X floatatom 407 418 5 0 0 0 - - -;
#X obj 282 380 mod 4096;
#X msg 666 142 bang;
#X connect 0 0 31 0;
#X connect 1 0 70 0;
#X connect 1 1 2 0;
#X connect 2 0 6 0;
#X connect 2 1 3 0;
#X connect 3 0 4 0;
#X connect 4 0 7 1;
#X connect 5 0 10 0;
#X connect 6 0 5 0;
#X connect 6 1 7 0;
#X connect 7 0 8 0;
#X connect 8 0 5 1;
#X connect 8 1 26 1;
#X connect 9 0 10 1;
#X connect 9 1 12 0;
#X connect 10 0 11 0;
#X connect 11 1 19 0;
#X connect 12 0 11 1;
#X connect 13 0 9 0;
#X connect 15 0 33 0;
#X connect 16 0 17 0;
#X connect 16 1 18 0;
#X connect 17 0 18 0;
#X connect 18 0 71 0;
#X connect 19 0 73 0;
#X connect 20 0 25 0;
#X connect 20 1 21 0;
#X connect 21 0 24 0;
#X connect 22 0 23 0;
#X connect 23 0 19 1;
#X connect 23 1 21 1;
#X connect 24 0 22 0;
#X connect 25 0 26 0;
#X connect 26 0 8 0;
#X connect 27 0 25 1;
#X connect 28 0 24 1;
#X connect 29 0 63 0;
#X connect 30 0 20 0;
#X connect 31 0 58 0;
#X connect 31 1 1 0;
#X connect 33 0 16 0;
#X connect 34 0 35 0;
#X connect 35 0 36 0;
#X connect 35 1 57 0;
#X connect 36 0 57 0;
#X connect 37 0 39 0;
#X connect 38 0 37 0;
#X connect 38 1 42 0;
#X connect 39 0 40 0;
#X connect 40 0 43 0;
#X connect 40 1 41 0;
#X connect 41 0 39 1;
#X connect 42 0 39 1;
#X connect 43 0 44 0;
#X connect 43 1 49 1;
#X connect 44 0 45 0;
#X connect 45 0 49 0;
#X connect 47 0 46 0;
#X connect 48 0 34 0;
#X connect 48 1 49 2;
#X connect 48 2 47 0;
#X connect 49 0 66 0;
#X connect 50 0 52 0;
#X connect 51 0 50 0;
#X connect 51 1 55 0;
#X connect 52 0 53 0;
#X connect 53 0 59 0;
#X connect 53 1 54 0;
#X connect 54 0 52 1;
#X connect 55 0 52 1;
#X connect 56 0 51 0;
#X connect 57 0 38 0;
#X connect 57 1 56 1;
#X connect 58 0 56 0;
#X connect 59 0 65 0;
#X connect 61 0 62 0;
#X connect 61 1 64 0;
#X connect 62 1 29 0;
#X connect 64 0 63 1;
#X connect 65 0 60 0;
#X connect 66 0 46 0;
#X connect 67 0 68 0;
#X connect 69 0 67 1;
#X connect 70 0 61 0;
#X connect 71 0 13 0;
#X connect 71 1 48 0;
#X connect 71 2 73 1;
#X connect 71 2 22 1;
#X connect 72 0 67 0;
#X connect 73 0 29 1;
#X connect 73 0 72 0;
#X connect 74 0 33 0;
