#N canvas 1503 474 450 300 10;
#X obj 172 120 L16pay 40;
#X obj 304 151 -;
#X obj 304 173 * 4;
#X floatatom 304 195 5 0 0 0 - - -;
#X msg 304 129 1293 13;
#X connect 1 0 2 0;
#X connect 2 0 3 0;
#X connect 4 0 1 0;
