#N canvas 625 209 551 550 10;
#X obj 111 77 osc~ 440;
#X msg 25 36 \; pd dsp 1;
#X obj 255 257 table scope 256;
#X msg 268 134 start;
#X obj 114 441 dac~;
#X floatatom 145 47 5 0 0 0 - - -;
#X msg 146 264 bang;
#X obj 119 126 L16pay~ 4;
#X obj 291 330 t b;
#X msg 271 304 bang;
#X obj 119 284 L16depay 4 4096;
#X obj 119 306 t a a;
#X obj 119 328 print tables;
#X obj 150 351 route 0;
#X obj 150 373 symbol;
#X msg 150 395 set \$1;
#X obj 224 329 tabplay~;
#X symbolatom 200 397 0 0 0 0 - - -;
#X obj 314 409 tabwrite~ scope;
#X obj 351 366 metro 100;
#X obj 353 340 tgl 15 0 empty empty empty 17 7 0 10 -262144 -1 -1 0
1;
#X obj 118 411 +~;
#X obj 111 101 quantize~ 8;
#X msg 215 79 16bit;
#X connect 0 0 22 0;
#X connect 3 0 7 0;
#X connect 5 0 0 0;
#X connect 6 0 10 0;
#X connect 7 0 10 0;
#X connect 8 0 16 0;
#X connect 9 0 16 0;
#X connect 10 0 11 0;
#X connect 11 0 12 0;
#X connect 11 1 13 0;
#X connect 13 0 14 0;
#X connect 14 0 15 0;
#X connect 14 0 17 0;
#X connect 15 0 16 0;
#X connect 16 0 18 0;
#X connect 16 0 21 0;
#X connect 16 1 8 0;
#X connect 19 0 18 0;
#X connect 20 0 19 0;
#X connect 21 0 4 0;
#X connect 21 0 4 1;
#X connect 22 0 7 0;
#X connect 23 0 22 0;
