#N canvas 275 270 450 300 10;
#X obj 120 61 L16pay~;
#X msg 74 33 start;
#X obj 158 37 sig~ 1;
#X msg 276 43 \; pd dsp 1;
#X floatatom 160 13 5 0 0 0 - - -;
#X obj 120 128 L16decode;
#X obj 120 150 route 0 1;
#X floatatom 120 172 0 0 0 0 - - -;
#X obj 323 133 spigot;
#X obj 323 155 print;
#X obj 362 109 tgl 15 0 empty empty empty 17 7 0 10 -262144 -1 -1 0
1;
#X obj 120 83 rtpparse;
#X connect 0 0 11 0;
#X connect 1 0 0 0;
#X connect 2 0 0 0;
#X connect 4 0 2 0;
#X connect 5 0 6 0;
#X connect 6 0 7 0;
#X connect 8 0 9 0;
#X connect 10 0 8 1;
#X connect 11 0 5 0;
#X connect 11 1 8 0;
