#N canvas 161 248 958 556 10;
#X obj 62 67 inlet data;
#X obj 62 89 unpackRTP;
#X obj 208 113 route timestamp marker;
#X obj 283 135 select 1;
#X obj 501 310 loadbang;
#N canvas 482 70 450 300 \$0-tablefarm 0;
#X restore 288 51 pd \$0-tablefarm;
#X obj 62 111 \$1decode \$2;
#X msg 565 310 bang;
#N canvas 565 320 700 334 \$0-senders 0;
#X restore 411 51 pd \$0-senders;
#X obj 43 506 outlet~ dummy;
#X obj 367 261 s \$0-tabplay;
#X msg 367 185 bang;
#X obj 636 49 inlet timestampSync;
#X obj 240 506 outlet timestampNow;
#X obj 283 157 t a b;
#N canvas 161 356 620 551 ts2index 0;
#X obj 50 51 inlet timestampNow;
#X obj 420 101 inlet timestampReference;
#X msg 363 140 1;
#X obj 50 85 t l l;
#X obj 324 163 spigot;
#X obj 166 276 t l l;
#X obj 50 378 +;
#X obj 270 330 % 2048;
#X obj 270 352 t f f;
#X obj 50 400 mod 2048;
#X obj 420 123 route bang;
#X obj 286 261 r \$0-tablesize;
#X obj 50 422 outlet index;
#X obj 166 212 r \$0-block;
#X obj 270 310 +;
#X text 365 83 bang: take next NOW as reference;
#N canvas 5 49 450 300 drop 0;
#X obj 156 134 t f f;
#X obj 50 134 moses 1024;
#X obj 50 156 moses -1024;
#X obj 188 154 * -1;
#X obj 124 184 outlet;
#X obj 50 112 inlet index;
#X obj 156 92 inlet range;
#X obj 156 114 / 2;
#X connect 0 0 1 1;
#X connect 0 1 3 0;
#X connect 1 0 2 0;
#X connect 2 1 4 0;
#X connect 3 0 2 1;
#X connect 5 0 1 0;
#X connect 6 0 7 0;
#X connect 7 0 0 0;
#X restore 50 333 pd drop early/last;
#X obj 166 233 t f f;
#X obj 324 185 t l b b;
#X msg 382 186 0;
#X msg 347 330 0;
#X obj 286 285 t f f f;
#X floatatom 167 445 0 0 0 0 - - -;
#X obj 167 423 spigot;
#X obj 218 426 tgl 15 0 empty empty empty 17 7 0 10 -262144 -1 -1 0
1;
#N canvas 5 49 450 300 timestamp_diff 0;
#X obj 78 51 inlet timestamp;
#X obj 252 50 inlet timestamp-reference;
#X text 219 25 timestamps: a*65536+b;
#X obj 78 143 unpack 0 0;
#X obj 252 142 unpack 0 0;
#X obj 78 165 -;
#X obj 78 187 * 65536;
#X obj 145 165 -;
#X obj 78 209 +;
#X obj 78 231 outlet;
#X connect 0 0 3 0;
#X connect 1 0 4 0;
#X connect 3 0 5 0;
#X connect 3 1 7 0;
#X connect 4 0 5 1;
#X connect 4 1 7 1;
#X connect 5 0 6 0;
#X connect 6 0 8 0;
#X connect 7 0 8 1;
#X connect 8 0 9 0;
#X restore 50 307 pd timestamp_diff;
#N canvas 5 49 450 379 timestamp_add 0;
#X text 192 16 timestamps: a*65536+b;
#X obj 225 104 unpack 0 0;
#X obj 207 282 outlet;
#X obj 207 236 +;
#X obj 207 178 t f f;
#X obj 207 200 >> 16;
#X obj 254 203 % 65536;
#X obj 207 260 pack;
#X obj 51 42 inlet increment;
#X obj 225 41 inlet timestamp;
#X obj 207 156 +;
#X connect 1 0 3 1;
#X connect 1 1 10 1;
#X connect 3 0 7 0;
#X connect 4 0 5 0;
#X connect 4 1 6 0;
#X connect 5 0 3 0;
#X connect 6 0 7 1;
#X connect 7 0 2 0;
#X connect 8 0 10 0;
#X connect 9 0 1 0;
#X connect 10 0 4 0;
#X restore 166 255 pd timestamp_add;
#X connect 0 0 3 0;
#X connect 1 0 10 0;
#X connect 2 0 4 1;
#X connect 3 0 25 0;
#X connect 3 1 4 0;
#X connect 4 0 18 0;
#X connect 5 0 25 1;
#X connect 5 1 26 1;
#X connect 6 0 9 0;
#X connect 7 0 8 0;
#X connect 8 0 6 1;
#X connect 8 1 14 1;
#X connect 9 0 12 0;
#X connect 10 0 2 0;
#X connect 10 1 18 0;
#X connect 11 0 21 0;
#X connect 13 0 17 0;
#X connect 14 0 7 0;
#X connect 16 0 6 0;
#X connect 16 0 23 0;
#X connect 17 0 26 0;
#X connect 17 1 14 0;
#X connect 18 0 5 0;
#X connect 18 1 20 0;
#X connect 18 2 19 0;
#X connect 19 0 4 1;
#X connect 20 0 8 0;
#X connect 21 0 16 1;
#X connect 21 1 7 1;
#X connect 21 2 9 1;
#X connect 23 0 22 0;
#X connect 24 0 23 1;
#X connect 25 0 16 0;
#X connect 26 0 5 0;
#X restore 208 212 pd ts2index;
#X obj 46 431 bang~;
#X obj 46 453 i 64;
#X obj 46 475 s \$0-block;
#X obj 413 160 r \$0-tablesize;
#X obj 413 182 / 2;
#X obj 367 208 i;
#X obj 367 230 +;
#X obj 401 207 r \$0-block;
#X text 680 297 <= clear (for saving);
#N canvas 118 393 469 437 timeout 0;
#X obj 284 119 inlet packetbang;
#X obj 284 141 t b;
#X text 62 27 if we received nothing for more than an entire buffer
\, clear the buffer;
#X obj 44 120 r \$0-block;
#X obj 44 142 +;
#X obj 44 164 % 2048;
#X obj 44 186 t f f;
#X obj 83 142 r \$0-tablesize;
#X obj 44 208 select 0;
#X floatatom 99 188 5 0 0 0 - - -;
#X obj 44 230 i;
#X obj 44 252 t f f;
#X obj 76 230 + 1;
#X obj 44 274 > 4;
#X msg 284 163 0;
#X obj 96 165 t f f;
#X obj 44 296 select 1;
#X obj 44 318 outlet;
#X connect 0 0 1 0;
#X connect 1 0 14 0;
#X connect 3 0 4 0;
#X connect 4 0 5 0;
#X connect 5 0 6 0;
#X connect 6 0 8 0;
#X connect 6 1 4 1;
#X connect 6 1 9 0;
#X connect 7 0 5 1;
#X connect 8 0 10 0;
#X connect 10 0 11 0;
#X connect 11 0 13 0;
#X connect 11 1 12 0;
#X connect 12 0 10 1;
#X connect 13 0 16 0;
#X connect 14 0 15 0;
#X connect 15 0 6 0;
#X connect 15 1 10 1;
#X connect 16 0 17 0;
#X restore 406 322 pd timeout;
#N canvas 115 391 691 563 cleartables 0;
#X obj 60 48 inlet doit;
#X obj 264 47 inlet numbtables;
#X obj 60 95 i;
#X obj 60 141 until;
#X obj 60 163 i;
#X obj 60 207 t f f;
#X obj 94 176 + 1;
#X msg 104 142 0;
#X obj 60 119 t f b;
#X obj 60 229 t b f;
#X obj 60 333 s;
#X msg 168 262 symbol \$2-samples\$1;
#X obj 168 241 pack 0 \$0;
#X obj 60 251 list prepend;
#X obj 60 70 t b a;
#X obj 60 273 list trim;
#X connect 0 0 14 0;
#X connect 1 0 2 1;
#X connect 2 0 8 0;
#X connect 3 0 4 0;
#X connect 4 0 5 0;
#X connect 5 0 9 0;
#X connect 5 1 6 0;
#X connect 6 0 4 1;
#X connect 7 0 4 1;
#X connect 8 0 3 0;
#X connect 8 1 7 0;
#X connect 9 0 13 0;
#X connect 9 1 12 0;
#X connect 11 0 10 1;
#X connect 12 0 11 0;
#X connect 13 0 15 0;
#X connect 14 0 2 0;
#X connect 14 1 13 1;
#X connect 15 0 10 0;
#X restore 438 426 pd cleartables;
#X obj 406 374 t b b;
#X obj 208 135 t l l;
#X obj 208 234 t f b;
#N canvas 1310 123 637 518 tabwrite 0;
#X obj 84 328 list prepend 0;
#X obj 44 183 t l f;
#X obj 44 215 list split 1;
#X obj 84 380 s;
#X obj 325 308 makefilename \$0-samples%d;
#X obj 294 26 inlet pos;
#X obj 44 29 inlet data;
#X obj 372 154 r \$0-tablesize;
#X obj 294 48 t f f;
#X obj 326 181 - 32768;
#X obj 84 277 list split \$3;
#X obj 326 203 * -1;
#X obj 128 300 list prepend 0;
#X obj 84 360 t a;
#X connect 0 0 13 0;
#X connect 1 0 2 0;
#X connect 1 1 4 0;
#X connect 2 1 10 0;
#X connect 4 0 3 1;
#X connect 5 0 8 0;
#X connect 6 0 1 0;
#X connect 7 0 9 1;
#X connect 8 0 0 1;
#X connect 8 1 9 0;
#X connect 9 0 11 0;
#X connect 10 0 0 0;
#X connect 10 1 12 0;
#X connect 10 2 0 0;
#X connect 11 0 10 1;
#X connect 12 0 13 0;
#X connect 13 0 3 0;
#X restore 62 275 pd tabwrite;
#N canvas 1366 200 677 649 init 0;
#X obj 165 229 i \$3;
#X obj 197 338 i \$2;
#X msg 117 47 bang;
#N canvas 455 252 450 300 createtables 0;
#X obj 64 -29 until;
#X obj 64 -7 i;
#X obj 64 37 t f f;
#X obj 98 6 + 1;
#X msg 106 -29 0;
#X obj 64 59 t f f;
#X obj 64 81 * 30;
#X obj 64 103 + 100;
#X obj 64 169 s pd-\$0-tablefarm;
#X msg 303 143 clear;
#X msg 64 147 obj 100 \$1 table \$4-samples\$2 \$3;
#X obj 64 -51 t f b b;
#X obj 64 -75 inlet channels;
#X obj 175 -75 inlet tabsize;
#X obj 64 125 pack 0 0 0 \$0;
#X connect 0 0 1 0;
#X connect 1 0 2 0;
#X connect 2 0 5 0;
#X connect 2 1 3 0;
#X connect 3 0 1 1;
#X connect 4 0 1 1;
#X connect 5 0 6 0;
#X connect 5 1 14 1;
#X connect 6 0 7 0;
#X connect 7 0 14 0;
#X connect 9 0 8 0;
#X connect 10 0 8 0;
#X connect 11 0 0 0;
#X connect 11 1 4 0;
#X connect 11 2 9 0;
#X connect 12 0 11 0;
#X connect 13 0 14 2;
#X connect 14 0 10 0;
#X restore 229 448 pd createtables;
#N canvas 529 273 747 577 createsender 0;
#X obj 93 484 s pd-\$0-senders;
#X obj 93 461 t a;
#X obj 93 17 inlet channels;
#X obj 266 63 inlet sendname;
#X obj 266 110 t s b;
#X msg 310 110 symbol;
#X obj 266 132 select symbol;
#X obj 266 176 t s;
#X msg 572 444 clear;
#X obj 93 143 until;
#X obj 93 165 i;
#X obj 93 187 t f f;
#X obj 123 165 + 1;
#X obj 93 209 t f f;
#X obj 175 227 * 4;
#X text 114 338 <\$1> <y> <SM1-> <\$0> <ID0> <ID1> <ID2> <ID3>;
#X obj 93 242 t f f;
#X obj 125 264 * 30;
#X obj 125 286 + 50;
#X obj 175 249 t f f f f;
#X obj 195 274 + 1;
#X obj 225 274 + 2;
#X obj 255 274 + 3;
#X obj 266 85 symbol;
#X obj 93 79 t f b;
#X obj 93 101 t f b;
#X obj 93 123 t f b;
#X msg 135 143 0;
#X msg 93 355 obj 20 \$2 r \$4-tabplay \, obj 150 \$2 tabplay~ \$4-samples\$1
\, obj 350 \$2 s~ \$3\$1 \, obj 450 \$2 s \$4-tabplay \, connect \$5
0 \$6 0 \, connect \$6 0 \$7 0 \, connect \$6 1 \$8 0;
#X obj 266 154 symbol \$0-;
#X obj 93 312 pack 0 0 s \$0 0 1 2 3;
#X connect 1 0 0 0;
#X connect 2 0 24 0;
#X connect 3 0 23 0;
#X connect 4 0 6 0;
#X connect 4 1 5 0;
#X connect 5 0 6 1;
#X connect 6 0 29 0;
#X connect 6 1 7 0;
#X connect 7 0 30 2;
#X connect 8 0 1 0;
#X connect 9 0 10 0;
#X connect 10 0 11 0;
#X connect 11 0 13 0;
#X connect 11 1 12 0;
#X connect 12 0 10 1;
#X connect 13 0 16 0;
#X connect 13 1 14 0;
#X connect 14 0 19 0;
#X connect 16 0 30 0;
#X connect 16 1 17 0;
#X connect 17 0 18 0;
#X connect 18 0 30 1;
#X connect 19 0 30 4;
#X connect 19 1 20 0;
#X connect 19 2 21 0;
#X connect 19 3 22 0;
#X connect 20 0 30 5;
#X connect 21 0 30 6;
#X connect 22 0 30 7;
#X connect 23 0 4 0;
#X connect 24 0 25 0;
#X connect 24 1 8 0;
#X connect 25 0 26 0;
#X connect 25 1 23 0;
#X connect 26 0 9 0;
#X connect 26 1 27 0;
#X connect 27 0 10 1;
#X connect 28 0 1 0;
#X connect 29 0 7 0;
#X connect 30 0 28 0;
#X restore 197 567 pd createsender;
#X obj 197 477 t f b;
#X obj 197 425 t f f;
#X obj 165 296 t f f;
#X obj 165 587 s \$0-tablesize;
#X msg 68 315 0;
#X obj 299 477 list prepend \$4;
#X obj 299 499 route float;
#X msg 299 521 symbol \$1-;
#X obj 299 543 t s;
#X text 277 49 <= clear (for saving);
#X obj 197 316 t b f;
#X obj 68 47 inlet;
#X obj 355 594 outlet num.channels;
#X obj 68 109 route reset;
#X msg 227 47 reset;
#X obj 190 209 r \$0-tablesize;
#X obj 247 316 r \$0-channels;
#X obj 197 403 t f f f;
#X obj 254 404 s \$0-channels;
#N canvas 6 49 576 285 sanitycheck 0;
#X obj 140 145 moses 1;
#X msg 140 166 2;
#X obj 140 207 t f;
#X obj 140 229 outlet;
#X obj 140 14 inlet;
#X obj 140 36 moses 256;
#X obj 200 58 t b f;
#X obj 232 102 print ERROR;
#X msg 232 80 maximum number of channels reached: \$1>256;
#X connect 0 0 1 0;
#X connect 0 1 2 0;
#X connect 1 0 2 0;
#X connect 2 0 3 0;
#X connect 4 0 5 0;
#X connect 5 0 0 0;
#X connect 5 1 6 0;
#X connect 6 0 1 0;
#X connect 6 1 8 0;
#X connect 8 0 7 0;
#X restore 197 371 pd sanitycheck;
#N canvas 7 49 652 587 sanitycheck 0;
#X obj 142 131 moses 64;
#X msg 142 183 2048;
#X obj 142 205 t f;
#X obj 142 45 inlet;
#X obj 142 429 outlet;
#X obj 142 67 moses 1e+06;
#X obj 216 89 t b f;
#X msg 248 210 maximum table size reached: \$1>1000000;
#X obj 248 232 print ERROR;
#X obj 142 153 t b f;
#X msg 258 190 minimum table size reached: \$1<64;
#X obj 223 336 r \$0-block;
#X obj 142 297 / 64;
#X obj 142 349 max 1;
#X obj 142 371 * 64;
#X obj 142 319 i;
#X connect 0 0 9 0;
#X connect 0 1 2 0;
#X connect 1 0 2 0;
#X connect 2 0 12 0;
#X connect 3 0 5 0;
#X connect 5 0 0 0;
#X connect 5 1 6 0;
#X connect 6 0 1 0;
#X connect 6 1 7 0;
#X connect 7 0 8 0;
#X connect 9 0 1 0;
#X connect 9 1 10 0;
#X connect 10 0 8 0;
#X connect 11 0 12 1;
#X connect 11 0 14 1;
#X connect 12 0 15 0;
#X connect 13 0 14 0;
#X connect 14 0 4 0;
#X connect 15 0 13 0;
#X restore 165 251 pd sanitycheck;
#X obj 165 273 t f f;
#X obj 208 274 s \$0-tablesize;
#X obj 68 81 t a;
#X obj 68 337 t f f;
#N canvas 572 127 450 300 suspendresume 0;
#X obj 42 81 inlet resume;
#X obj 218 44 inlet suspend;
#X obj 42 103 t b;
#X msg 102 167 \; pd dsp \$1;
#X obj 345 40 r pd;
#X obj 345 62 route dsp;
#X obj 42 125 i -1;
#X obj 42 147 select -1;
#X obj 250 146 i -1;
#X obj 218 88 spigot;
#X obj 345 84 t b f;
#X msg 270 88 1;
#X obj 218 116 t b b;
#X msg 273 169 \; pd dsp 0;
#X floatatom 366 141 5 0 0 0 - - -;
#X floatatom 207 197 5 0 0 0 - - -;
#X floatatom 95 227 5 0 0 0 - - -;
#X connect 0 0 2 0;
#X connect 1 0 9 0;
#X connect 2 0 6 0;
#X connect 4 0 5 0;
#X connect 5 0 10 0;
#X connect 6 0 7 0;
#X connect 6 0 16 0;
#X connect 7 1 3 0;
#X connect 8 0 6 1;
#X connect 8 0 15 0;
#X connect 9 0 12 0;
#X connect 10 0 11 0;
#X connect 10 1 8 1;
#X connect 10 1 14 0;
#X connect 11 0 9 1;
#X connect 12 0 13 0;
#X connect 12 1 8 0;
#X restore 115 149 pd suspendresume;
#X obj 142 130 t b a b;
#X obj 68 131 t b;
#X obj 165 173 t a b;
#X connect 0 0 25 0;
#X connect 1 0 24 0;
#X connect 2 0 28 0;
#X connect 5 0 4 0;
#X connect 5 1 10 0;
#X connect 6 0 5 0;
#X connect 6 1 3 0;
#X connect 7 0 8 0;
#X connect 7 1 15 0;
#X connect 9 0 29 0;
#X connect 10 0 11 0;
#X connect 11 0 12 0;
#X connect 11 1 13 0;
#X connect 12 0 13 0;
#X connect 13 0 4 1;
#X connect 15 0 1 0;
#X connect 15 1 3 1;
#X connect 16 0 28 0;
#X connect 18 0 32 0;
#X connect 18 1 31 0;
#X connect 19 0 28 0;
#X connect 20 0 0 1;
#X connect 21 0 1 1;
#X connect 22 0 6 0;
#X connect 22 1 17 0;
#X connect 22 2 23 0;
#X connect 24 0 22 0;
#X connect 25 0 26 0;
#X connect 26 0 7 0;
#X connect 26 1 27 0;
#X connect 28 0 18 0;
#X connect 29 0 3 0;
#X connect 29 1 5 0;
#X connect 31 0 30 0;
#X connect 31 1 33 0;
#X connect 31 2 30 1;
#X connect 32 0 9 0;
#X connect 33 0 0 0;
#X connect 33 1 9 0;
#X restore 533 361 pd init;
#X msg 629 296 reset;
#X text 120 19 1:<encoding> 2:<channels> 3:<buffersize> 4:<r~prefix>
;
#X text 55 8 arguments:;
#X obj 736 121 t b f;
#X obj 768 164 s \$0-tablesize;
#X obj 636 189 t b;
#X obj 636 74 route channels bufsize bang float;
#X obj 750 99 t a;
#X msg 407 238 bang;
#X obj 718 225 r \$0-channels;
#X floatatom 718 247 5 0 0 0 - - -;
#X obj 406 344 spigot 1;
#X obj 474 345 tgl 15 0 empty empty empty 17 7 0 10 -262144 -1 -1 0
1;
#X obj 501 333 t b b;
#X msg 148 75 channels \$1;
#X msg 438 399 const 0;
#X msg 560 400 resize \$1;
#X obj 560 380 r \$0-tablesize;
#N canvas 5 49 766 625 sanitize 0;
#X obj 136 127 inlet size;
#X obj 136 490 outlet size;
#X obj 136 221 moses 64;
#X msg 136 273 2048;
#X obj 136 295 t f;
#X obj 136 157 moses 1e+06;
#X obj 210 179 t b f;
#X msg 242 300 maximum table size reached: \$1>1000000;
#X obj 242 322 print ERROR;
#X obj 136 243 t b f;
#X msg 252 280 minimum table size reached: \$1<64;
#X obj 217 376 r \$0-block;
#X obj 136 337 / 64;
#X obj 136 389 max 1;
#X obj 136 411 * 64;
#X obj 136 359 i;
#X connect 0 0 5 0;
#X connect 2 0 9 0;
#X connect 2 1 4 0;
#X connect 3 0 4 0;
#X connect 4 0 12 0;
#X connect 5 0 2 0;
#X connect 5 1 6 0;
#X connect 6 0 3 0;
#X connect 6 1 7 0;
#X connect 7 0 8 0;
#X connect 9 0 3 0;
#X connect 9 1 10 0;
#X connect 10 0 8 0;
#X connect 11 0 12 1;
#X connect 11 0 14 1;
#X connect 12 0 15 0;
#X connect 13 0 14 0;
#X connect 14 0 1 0;
#X connect 15 0 13 0;
#X restore 768 144 pd sanitize;
#N canvas 346 222 633 391 sanitize 0;
#X obj 60 22 inlet channels;
#X obj 173 87 r \$0-channels;
#X obj 60 110 min \$2;
#X obj 60 132 max 0;
#X obj 60 44 i \$2;
#X obj 60 66 t f f;
#X obj 92 174 select 0;
#X obj 60 154 t f f;
#X obj 60 226 outlet;
#X obj 145 305 print ERROR:rtp\$1depay~;
#X obj 145 246 pack 0 \$2;
#X obj 173 109 t f f;
#X obj 145 194 t b;
#X msg 145 269 only 0..\$2 allowed active channels (got \$1);
#X obj 145 216 i;
#X obj 145 153 t f f;
#X connect 0 0 4 0;
#X connect 1 0 11 0;
#X connect 2 0 3 0;
#X connect 3 0 7 0;
#X connect 4 0 5 0;
#X connect 5 0 2 0;
#X connect 5 1 15 0;
#X connect 6 1 12 0;
#X connect 7 0 8 0;
#X connect 7 1 6 0;
#X connect 10 0 13 0;
#X connect 11 0 2 1;
#X connect 11 1 10 1;
#X connect 12 0 14 0;
#X connect 13 0 9 0;
#X connect 14 0 10 0;
#X connect 15 0 6 1;
#X connect 15 1 14 1;
#X restore 636 99 pd sanitize;
#X connect 0 0 1 0;
#X connect 1 0 6 0;
#X connect 1 1 2 0;
#X connect 2 0 28 0;
#X connect 2 1 3 0;
#X connect 3 0 14 0;
#X connect 4 0 45 0;
#X connect 6 0 30 0;
#X connect 7 0 45 0;
#X connect 11 0 21 0;
#X connect 12 0 38 0;
#X connect 14 0 15 1;
#X connect 14 1 11 0;
#X connect 15 0 29 0;
#X connect 16 0 17 0;
#X connect 17 0 18 0;
#X connect 19 0 20 0;
#X connect 20 0 21 1;
#X connect 21 0 22 0;
#X connect 22 0 10 0;
#X connect 23 0 22 1;
#X connect 25 0 43 0;
#X connect 27 0 15 1;
#X connect 27 1 47 0;
#X connect 28 0 15 0;
#X connect 28 1 13 0;
#X connect 29 0 30 1;
#X connect 29 1 25 0;
#X connect 31 0 26 1;
#X connect 32 0 31 0;
#X connect 35 0 14 0;
#X connect 35 1 50 0;
#X connect 37 0 45 0;
#X connect 38 0 51 0;
#X connect 38 1 35 0;
#X connect 38 2 39 0;
#X connect 38 3 39 0;
#X connect 39 0 14 0;
#X connect 40 0 10 0;
#X connect 41 0 42 0;
#X connect 43 0 27 0;
#X connect 44 0 43 1;
#X connect 45 0 14 0;
#X connect 45 1 31 0;
#X connect 46 0 6 0;
#X connect 47 0 26 0;
#X connect 48 0 26 0;
#X connect 49 0 48 0;
#X connect 50 0 36 0;
#X connect 51 0 46 0;
