#N canvas 198 49 1078 716 10;
#X obj 62 67 inlet data;
#X obj 62 89 unpackRTP;
#X obj 208 113 route timestamp marker;
#X obj 283 135 select 1;
#X obj 592 97 loadbang;
#X obj 592 151 moses 64;
#X msg 592 173 2048;
#X obj 592 195 t f;
#N canvas 20 49 450 300 \$0-tablefarm 0;
#X obj 100 100 table 1020-samples0 32768;
#X obj 100 130 table 1020-samples1 32768;
#X restore 288 41 pd \$0-tablefarm;
#X obj 592 129 i \$3;
#X obj 624 258 i \$2;
#X obj 624 281 moses 1;
#X msg 624 302 2;
#X obj 62 111 \$1decode \$2;
#X msg 661 92 bang;
#N canvas 11 49 700 334 \$0-senders 0;
#X obj 20 50 r 1020-tabplay;
#X obj 150 50 tabplay~ 1020-samples0;
#X obj 350 50 s~ 1002-0;
#X obj 450 50 s 1020-tabplay;
#X obj 20 80 r 1020-tabplay;
#X obj 150 80 tabplay~ 1020-samples1;
#X obj 350 80 s~ 1002-1;
#X obj 450 80 s 1020-tabplay;
#X connect 0 0 1 0;
#X connect 1 0 2 0;
#X connect 1 1 3 0;
#X connect 4 0 5 0;
#X connect 5 0 6 0;
#X connect 5 1 7 0;
#X restore 411 41 pd \$0-senders;
#N canvas 448 280 450 300 createtables 0;
#X obj 64 -29 until;
#X obj 64 -7 i;
#X obj 64 37 t f f;
#X obj 98 6 + 1;
#X msg 106 -29 0;
#X obj 64 59 t f f;
#X obj 64 81 * 30;
#X obj 64 103 + 100;
#X obj 64 169 s pd-\$0-tablefarm;
#X msg 303 143 clear;
#X obj 64 125 pack 0 0 0 \$0;
#X msg 64 147 obj 100 \$1 table \$4-samples\$2 \$3;
#X obj 64 -51 t f b b;
#X obj 64 -75 inlet channels;
#X obj 175 -75 inlet tabsize;
#X connect 0 0 1 0;
#X connect 1 0 2 0;
#X connect 2 0 5 0;
#X connect 2 1 3 0;
#X connect 3 0 1 1;
#X connect 4 0 1 1;
#X connect 5 0 6 0;
#X connect 5 1 10 1;
#X connect 6 0 7 0;
#X connect 7 0 10 0;
#X connect 9 0 8 0;
#X connect 10 0 11 0;
#X connect 11 0 8 0;
#X connect 12 0 0 0;
#X connect 12 1 4 0;
#X connect 12 2 9 0;
#X connect 13 0 12 0;
#X connect 14 0 10 2;
#X restore 656 368 pd createtables;
#N canvas 1363 435 747 577 createsender 0;
#X obj 93 444 s pd-\$0-senders;
#X obj 93 421 t a;
#X obj 93 17 inlet channels;
#X obj 266 23 inlet sendname;
#X obj 266 70 t s b;
#X msg 310 70 symbol;
#X obj 266 92 select symbol;
#X obj 266 136 t s;
#X msg 572 404 clear;
#X obj 93 103 until;
#X obj 93 125 i;
#X obj 93 147 t f f;
#X obj 123 125 + 1;
#X obj 93 169 t f f;
#X obj 175 187 * 4;
#X text 114 298 <\$1> <y> <SM1-> <\$0> <ID0> <ID1> <ID2> <ID3>;
#X obj 93 272 pack 0 0 s \$0 0 1 2 3;
#X obj 93 202 t f f;
#X obj 125 224 * 30;
#X obj 125 246 + 50;
#X obj 175 209 t f f f f;
#X obj 195 234 + 1;
#X obj 225 234 + 2;
#X obj 255 234 + 3;
#X obj 266 45 symbol;
#X obj 93 39 t f b;
#X obj 93 61 t f b;
#X obj 93 83 t f b;
#X msg 135 103 0;
#X msg 93 315 obj 20 \$2 r \$4-tabplay \, obj 150 \$2 tabplay~ \$4-samples\$1
\, obj 350 \$2 s~ \$3\$1 \, obj 450 \$2 s \$4-tabplay \, connect \$5
0 \$6 0 \, connect \$6 0 \$7 0 \, connect \$6 1 \$8 0;
#X obj 266 114 symbol \$0-;
#X connect 1 0 0 0;
#X connect 2 0 25 0;
#X connect 3 0 24 0;
#X connect 4 0 6 0;
#X connect 4 1 5 0;
#X connect 5 0 6 1;
#X connect 6 0 30 0;
#X connect 6 1 7 0;
#X connect 7 0 16 2;
#X connect 8 0 1 0;
#X connect 9 0 10 0;
#X connect 10 0 11 0;
#X connect 11 0 13 0;
#X connect 11 1 12 0;
#X connect 12 0 10 1;
#X connect 13 0 17 0;
#X connect 13 1 14 0;
#X connect 14 0 20 0;
#X connect 16 0 29 0;
#X connect 17 0 16 0;
#X connect 17 1 18 0;
#X connect 18 0 19 0;
#X connect 19 0 16 1;
#X connect 20 0 16 4;
#X connect 20 1 21 0;
#X connect 20 2 22 0;
#X connect 20 3 23 0;
#X connect 21 0 16 5;
#X connect 22 0 16 6;
#X connect 23 0 16 7;
#X connect 24 0 4 0;
#X connect 25 0 26 0;
#X connect 25 1 8 0;
#X connect 26 0 27 0;
#X connect 26 1 24 0;
#X connect 27 0 9 0;
#X connect 27 1 28 0;
#X connect 28 0 10 1;
#X connect 29 0 1 0;
#X connect 30 0 7 0;
#X restore 624 487 pd createsender;
#X obj 624 397 t f b;
#X obj 624 345 t f f;
#X obj 592 216 t f f;
#X obj 43 506 outlet~ dummy;
#X obj 367 261 s \$0-tabplay;
#X msg 367 185 bang;
#X obj 517 237 s \$0-tablesize;
#X obj 786 49 inlet timestampSync;
#X obj 472 506 outlet timestampNow;
#X obj 283 157 t a b;
#X msg 701 234 0;
#N canvas 1380 437 498 551 ts2index 0;
#X obj 50 -9 inlet timestampNow;
#X obj 241 -9 inlet timestampReference;
#X msg 184 30 1;
#X obj 50 252 timestamp_diff;
#X obj 50 25 t l l;
#X obj 145 53 spigot;
#X obj 145 216 t l l;
#X obj 50 318 +;
#X obj 249 270 % 2048;
#X obj 249 292 t f f;
#X obj 217 164 timestamp_add;
#X obj 50 340 mod 2048;
#X obj 241 13 route bang;
#X obj 265 201 r \$0-tablesize;
#X obj 50 362 outlet index;
#X obj 217 122 r \$0-block;
#X obj 249 250 +;
#X text 234 35 bang: take next NOW as reference;
#N canvas 5 49 450 300 drop 0;
#X obj 156 134 t f f;
#X obj 50 134 moses 1024;
#X obj 50 156 moses -1024;
#X obj 188 154 * -1;
#X obj 124 184 outlet;
#X obj 50 112 inlet index;
#X obj 156 92 inlet range;
#X obj 156 114 / 2;
#X connect 0 0 1 1;
#X connect 0 1 3 0;
#X connect 1 0 2 0;
#X connect 2 1 4 0;
#X connect 3 0 2 1;
#X connect 5 0 1 0;
#X connect 6 0 7 0;
#X connect 7 0 0 0;
#X restore 50 273 pd drop early/last;
#X obj 217 143 t f f;
#X obj 145 75 t l b b;
#X msg 203 76 0;
#X msg 326 270 0;
#X obj 265 225 t f f f;
#X floatatom 167 385 0 0 0 0 - - -;
#X obj 167 363 spigot;
#X obj 218 366 tgl 15 0 empty empty empty 17 7 0 10 -262144 -1 -1 0
1;
#X connect 0 0 4 0;
#X connect 1 0 12 0;
#X connect 2 0 5 1;
#X connect 3 0 18 0;
#X connect 4 0 3 0;
#X connect 4 1 5 0;
#X connect 5 0 20 0;
#X connect 6 0 3 1;
#X connect 6 1 10 1;
#X connect 7 0 11 0;
#X connect 8 0 9 0;
#X connect 9 0 7 1;
#X connect 9 1 16 1;
#X connect 10 0 6 0;
#X connect 11 0 14 0;
#X connect 12 0 2 0;
#X connect 12 1 20 0;
#X connect 13 0 23 0;
#X connect 15 0 19 0;
#X connect 16 0 8 0;
#X connect 18 0 7 0;
#X connect 18 0 25 0;
#X connect 19 0 10 0;
#X connect 19 1 16 0;
#X connect 20 0 6 0;
#X connect 20 1 22 0;
#X connect 20 2 21 0;
#X connect 21 0 5 1;
#X connect 22 0 9 0;
#X connect 23 0 18 1;
#X connect 23 1 8 1;
#X connect 23 2 11 1;
#X connect 25 0 24 0;
#X connect 26 0 25 1;
#X restore 208 212 pd ts2index;
#X obj 726 397 list prepend \$4;
#X obj 726 419 route float;
#X msg 726 441 symbol \$1-;
#X obj 726 463 t s;
#X obj 46 431 bang~;
#X obj 46 453 i 64;
#X obj 46 475 s \$0-block;
#X obj 413 160 r \$0-tablesize;
#X obj 413 182 / 2;
#X obj 367 208 i;
#X obj 367 230 +;
#X obj 401 207 r \$0-block;
#X text 739 234 <= clear (for saving);
#X obj 624 236 t b f;
#N canvas 117 397 469 437 timeout 0;
#X obj 284 119 inlet packetbang;
#X obj 284 141 t b;
#X text 62 27 if we received nothing for more than an entire buffer
\, clear the buffer;
#X obj 44 120 r \$0-block;
#X obj 44 142 +;
#X obj 44 164 % 2048;
#X obj 44 186 t f f;
#X obj 83 142 r \$0-tablesize;
#X obj 44 208 select 0;
#X floatatom 99 188 5 0 0 0 - - -;
#X obj 44 230 i;
#X obj 44 252 t f f;
#X obj 76 230 + 1;
#X obj 44 274 > 4;
#X msg 284 163 0;
#X obj 96 165 t f f;
#X obj 44 296 select 1;
#X obj 44 318 outlet;
#X connect 0 0 1 0;
#X connect 1 0 14 0;
#X connect 3 0 4 0;
#X connect 4 0 5 0;
#X connect 5 0 6 0;
#X connect 6 0 8 0;
#X connect 6 1 4 1;
#X connect 6 1 9 0;
#X connect 7 0 5 1;
#X connect 8 0 10 0;
#X connect 10 0 11 0;
#X connect 11 0 13 0;
#X connect 11 1 12 0;
#X connect 12 0 10 1;
#X connect 13 0 16 0;
#X connect 14 0 15 0;
#X connect 15 0 6 0;
#X connect 15 1 10 1;
#X connect 16 0 17 0;
#X restore 406 322 pd timeout;
#N canvas 5 49 450 523 cleartables 0;
#X obj 60 48 inlet doit;
#X obj 264 47 inlet numbtables;
#X obj 60 95 i;
#X obj 60 70 t b;
#X obj 60 141 until;
#X obj 60 163 i;
#X obj 60 207 t f f;
#X obj 94 176 + 1;
#X msg 104 142 0;
#X obj 60 119 t f b;
#X obj 60 229 t b f;
#X msg 60 251 const 0;
#X obj 60 273 s;
#X obj 128 230 pack 0 \$0;
#X msg 128 252 symbol \$2-samples\$1;
#X connect 0 0 3 0;
#X connect 1 0 2 1;
#X connect 2 0 9 0;
#X connect 3 0 2 0;
#X connect 4 0 5 0;
#X connect 5 0 6 0;
#X connect 6 0 10 0;
#X connect 6 1 7 0;
#X connect 7 0 5 1;
#X connect 8 0 5 1;
#X connect 9 0 4 0;
#X connect 9 1 8 0;
#X connect 10 0 11 0;
#X connect 10 1 13 0;
#X connect 11 0 12 0;
#X connect 13 0 14 0;
#X connect 14 0 12 1;
#X restore 438 366 pd cleartables;
#X obj 624 323 t f f;
#X obj 406 344 t b b;
#X obj 208 135 t l l;
#X obj 208 234 t f b;
#N canvas 265 240 637 417 tabwrite 0;
#X obj 84 358 list prepend 0;
#X obj 44 183 t l f;
#X obj 44 215 list split 1;
#X obj 84 380 s;
#X obj 125 338 makefilename \$0-samples%d;
#X obj 294 26 inlet pos;
#X obj 44 29 inlet data;
#X obj 372 154 r \$0-tablesize;
#X obj 294 48 t f f;
#X obj 326 181 - 32768;
#X obj 84 277 list split \$3;
#X obj 326 203 * -1;
#X obj 128 300 list prepend 0;
#X connect 0 0 3 0;
#X connect 1 0 2 0;
#X connect 1 1 4 0;
#X connect 2 1 10 0;
#X connect 4 0 3 1;
#X connect 5 0 8 0;
#X connect 6 0 1 0;
#X connect 7 0 9 1;
#X connect 8 0 0 1;
#X connect 8 1 9 0;
#X connect 9 0 11 0;
#X connect 10 0 0 0;
#X connect 10 1 12 0;
#X connect 10 2 0 0;
#X connect 11 0 10 1;
#X connect 12 0 0 0;
#X restore 62 275 pd tabwrite;
#X connect 0 0 1 0;
#X connect 1 0 13 0;
#X connect 1 1 2 0;
#X connect 2 0 48 0;
#X connect 2 1 3 0;
#X connect 3 0 27 0;
#X connect 4 0 9 0;
#X connect 5 0 6 0;
#X connect 5 1 7 0;
#X connect 6 0 7 0;
#X connect 7 0 20 0;
#X connect 9 0 5 0;
#X connect 10 0 11 0;
#X connect 11 0 12 0;
#X connect 11 1 46 0;
#X connect 12 0 46 0;
#X connect 13 0 50 0;
#X connect 14 0 9 0;
#X connect 18 0 17 0;
#X connect 18 1 30 0;
#X connect 19 0 18 0;
#X connect 19 1 16 0;
#X connect 20 0 24 0;
#X connect 20 1 43 0;
#X connect 23 0 39 0;
#X connect 25 0 27 0;
#X connect 27 0 29 1;
#X connect 27 1 23 0;
#X connect 28 0 46 0;
#X connect 29 0 49 0;
#X connect 30 0 31 0;
#X connect 31 0 32 0;
#X connect 31 1 33 0;
#X connect 32 0 33 0;
#X connect 33 0 17 1;
#X connect 34 0 35 0;
#X connect 35 0 36 0;
#X connect 37 0 38 0;
#X connect 38 0 39 1;
#X connect 39 0 40 0;
#X connect 40 0 22 0;
#X connect 41 0 40 1;
#X connect 43 0 10 0;
#X connect 43 1 16 1;
#X connect 44 0 47 0;
#X connect 46 0 19 0;
#X connect 46 1 45 1;
#X connect 47 0 29 1;
#X connect 47 1 45 0;
#X connect 48 0 29 0;
#X connect 48 1 26 0;
#X connect 49 0 50 1;
#X connect 49 1 44 0;
