#N canvas 762 255 450 415 10;
#X obj 32 274 rtpinfo;
#X obj 123 149 L16pay 1;
#X obj 111 95 osc~ 10;
#X msg 255 55 \; pd dsp 1;
#X msg 259 165 start;
#X msg 213 166 stop;
#X obj 210 101 tgl 15 0 empty empty empty 17 7 0 10 -262144 -1 -1 1
1;
#X obj 210 123 select 0;
#X msg 32 202 128 96 0 80 0 0 20 0 0 0 0 0;
#X msg 52 232 129 96 0 80 0 0 20 0 0 0 0 0 1 0 0 2;
#X obj 123 171 t l l;
#X obj 32 318 unpack 0 0;
#X floatatom 32 340 5 0 0 0 - - -;
#X floatatom 99 364 5 0 0 0 - - -;
#X obj 324 327 print;
#X obj 324 298 spigot;
#X obj 366 227 del 1;
#X msg 366 249 0;
#X obj 366 271 t f;
#X msg 396 249 1;
#X msg 366 175 bang;
#X obj 366 197 t b b;
#X obj 32 296 route timestamp sequence_number;
#X floatatom 139 319 5 0 0 0 - - -;
#X connect 0 0 15 0;
#X connect 0 0 22 0;
#X connect 1 0 10 0;
#X connect 2 0 1 0;
#X connect 4 0 1 0;
#X connect 5 0 1 0;
#X connect 6 0 7 0;
#X connect 7 0 5 0;
#X connect 7 1 4 0;
#X connect 8 0 0 0;
#X connect 9 0 0 0;
#X connect 10 0 0 0;
#X connect 11 0 12 0;
#X connect 11 1 13 0;
#X connect 15 0 14 0;
#X connect 16 0 17 0;
#X connect 17 0 18 0;
#X connect 18 0 15 1;
#X connect 19 0 18 0;
#X connect 20 0 21 0;
#X connect 21 0 16 0;
#X connect 21 1 19 0;
#X connect 22 0 11 0;
#X connect 22 1 23 0;
