#N canvas 408 318 490 376 10;
#X obj 91 161 +~;
#X text 94 142 dummy outlet;
#X msg 90 95;
#X obj 81 331 env~;
#X floatatom 81 353 5 0 0 0 - - -;
#X obj 151 331 env~;
#X floatatom 151 353 5 0 0 0 - - -;
#X obj 221 331 env~;
#X floatatom 221 353 5 0 0 0 - - -;
#X obj 291 331 env~;
#X floatatom 291 353 5 0 0 0 - - -;
#X text 44 285 <channels> signals are [send~] to <r~prefix><idx>;
#X text 35 33 RTP-depayloader for L16 (signed int \, 16bit \, big-endian)
;
#X text 122 97 RTP-packet (L16);
#X text 32 201 arguments: <channels> <buffersize> <r~prefix>;
#X obj 90 119 rtpL16depay~ 4 32768 \$0-;
#X obj 81 309 r~ \$0-0;
#X obj 151 309 r~ \$0-1;
#X obj 221 309 r~ \$0-2;
#X obj 291 309 r~ \$0-3;
#X connect 2 0 15 0;
#X connect 3 0 4 0;
#X connect 5 0 6 0;
#X connect 7 0 8 0;
#X connect 9 0 10 0;
#X connect 15 0 0 0;
#X connect 16 0 3 0;
#X connect 17 0 5 0;
#X connect 18 0 7 0;
#X connect 19 0 9 0;
