#N canvas 340 287 776 415 10;
#X obj 123 81 L16pay~ 2;
#X obj 124 50 sig~ 1;
#X obj 193 54 osc~ 440;
#X msg 224 94 start 1;
#X obj 123 103 t b a;
#X obj 152 150 spigot;
#X obj 152 172 print;
#X msg 197 127 0;
#X msg 218 149 1;
#X msg 310 8 128 96 100 212 0 25 53 0 0 0 0 0 127 255 122 115 127 255
119 224 127 255 116 212 127 255 113 83 127 255 109 95 127 255 104 254
127 255 100 51 127 255 95 4 127 255 89 117 127 255 83 140 127 255 77
78 127 255 70 195 127 255 63 241 127 255 56 223 127 255 49 147 127
255 42 22 127 255 34 110 127 255 26 164 127 255 18 191 127 255 10 198
127 255 2 196 127 255 250 255 127 255 242 255 127 255 234 255 127 255
226 255 127 255 219 255 127 255 211 255 127 255 204 255 127 255 196
255 127 255 189 255 127 255 183 255 127 255 176 255 127 255 170 255
127 255 164 255 127 255 159 255 127 255 154 255 127 255 149 255 127
255 145 255 127 255 141 255 127 255 138 255 127 255 135 255 127 255
132 255 127 255 130 255 127 255 129 255 127 255 128 255 127 255 128
255 127 255 128 255 127 255 128 255 127 255 129 255 127 255 131 255
127 255 133 255 127 255 135 255 127 255 138 255 127 255 142 255 127
255 146 255 127 255 150 255 127 255 155 255 127 255 160 255 127 255
165 255 127 255 171 255 127 255 177 255 127 255 184 255 127 255 191
255 127 255 198 255;
#X obj 310 291 L16decode 2;
#X obj 310 251 rtpparse;
#X obj 375 252 print RTP;
#X obj 310 313 print DATA;
#X connect 0 0 4 0;
#X connect 1 0 0 0;
#X connect 2 0 0 1;
#X connect 3 0 0 0;
#X connect 4 0 7 0;
#X connect 4 1 5 0;
#X connect 5 0 6 0;
#X connect 7 0 5 1;
#X connect 8 0 5 1;
#X connect 9 0 11 0;
#X connect 10 0 13 0;
#X connect 11 0 10 0;
#X connect 11 1 12 0;
