#N canvas 7 49 784 382 10;
#X text 219 25 timestamps: a*65536+b;
#X obj 252 113 unpack 0 0;
#X obj 234 291 outlet;
#X obj 234 245 +;
#X obj 234 165 + \$1;
#X obj 234 187 t f f;
#X obj 234 209 >> 16;
#X obj 281 212 % 65536;
#X obj 234 269 pack;
#X obj 78 51 inlet increment;
#X obj 252 50 inlet timestamp;
#X connect 1 0 3 1;
#X connect 1 1 4 1;
#X connect 3 0 8 0;
#X connect 4 0 5 0;
#X connect 5 0 6 0;
#X connect 5 1 7 0;
#X connect 6 0 3 0;
#X connect 7 0 8 1;
#X connect 8 0 2 0;
#X connect 9 0 4 0;
#X connect 10 0 1 0;
