#N canvas 7 49 784 382 10;
#X obj 78 51 inlet timestamp;
#X text 219 25 timestamps: a*65536+b;
#X obj 78 113 unpack 0 0;
#X obj 78 291 outlet;
#X obj 252 50 inlet increment;
#X obj 78 245 +;
#X obj 145 165 + \$1;
#X obj 145 187 t f f;
#X obj 145 209 >> 16;
#X obj 192 212 % 65536;
#X obj 78 269 pack;
#X connect 0 0 2 0;
#X connect 2 0 5 0;
#X connect 2 1 6 0;
#X connect 4 0 6 1;
#X connect 5 0 10 0;
#X connect 6 0 7 0;
#X connect 7 0 8 0;
#X connect 7 1 9 0;
#X connect 8 0 5 1;
#X connect 9 0 10 1;
#X connect 10 0 3 0;
