#N canvas 5 49 784 382 10;
#X obj 78 51 inlet timestamp;
#X obj 252 50 inlet timestamp-reference;
#X text 219 25 timestamps: a*65536+b;
#X obj 78 143 unpack 0 0;
#X obj 252 142 unpack 0 0;
#X obj 78 165 -;
#X obj 78 187 * 65536;
#X obj 145 165 -;
#X obj 78 209 +;
#X obj 78 231 outlet;
#X connect 0 0 3 0;
#X connect 1 0 4 0;
#X connect 3 0 5 0;
#X connect 3 1 7 0;
#X connect 4 0 5 1;
#X connect 4 1 7 1;
#X connect 5 0 6 0;
#X connect 6 0 8 0;
#X connect 7 0 8 1;
#X connect 8 0 9 0;
