#N canvas 524 264 450 711 10;
#X obj 101 224 r~ SM1-0;
#X obj 126 95 rtpL16pay~ 4;
#X obj 101 246 env~;
#X floatatom 101 268 5 0 0 0 - - -;
#X obj 71 345 dac~;
#X msg 227 46 stop;
#X msg 225 89 start;
#X obj 32 58 zexy;
#X obj 290 381 table scope 1024;
#X obj 173 272 tabwrite~ scope;
#X obj 133 15 t b b;
#X msg 75 13 bang;
#X msg 242 359 bang;
#X obj 242 381 i 1024;
#X obj 242 403 t f b;
#X obj 242 425 until;
#X obj 242 447 i;
#X obj 242 469 t f f;
#X obj 242 491 t f f;
#X obj 242 513 tabread scope;
#X obj 242 535 pack;
#X obj 242 557 route 0;
#X obj 271 448 + 1;
#X msg 286 427 0;
#X obj 282 581 print scope;
#X obj 166 335 del 100;
#X obj 183 248 t b b;
#X obj 303 310 t f f;
#X msg 333 335 resize \$1;
#X obj 333 357 s scope;
#X floatatom 304 284 5 0 0 0 - - -;
#X msg 339 180 16448;
#X floatatom 339 224 5 0 0 0 - - -;
#X obj 339 202 - 64;
#X msg 327 49 2 14;
#X obj 327 71 pow;
#X floatatom 327 93 5 0 0 0 - - -;
#X obj 106 41 osc~ 440;
#X obj 126 144 rtpL16depay~ 4 512 SM1-;
#X connect 0 0 2 0;
#X connect 0 0 4 0;
#X connect 0 0 9 0;
#X connect 1 0 38 0;
#X connect 2 0 3 0;
#X connect 5 0 1 0;
#X connect 6 0 1 0;
#X connect 10 0 37 0;
#X connect 10 1 26 0;
#X connect 11 0 10 0;
#X connect 12 0 13 0;
#X connect 13 0 14 0;
#X connect 14 0 15 0;
#X connect 14 1 23 0;
#X connect 15 0 16 0;
#X connect 16 0 17 0;
#X connect 17 0 18 0;
#X connect 17 1 22 0;
#X connect 18 0 19 0;
#X connect 18 1 20 1;
#X connect 19 0 20 0;
#X connect 20 0 21 0;
#X connect 21 1 24 0;
#X connect 22 0 16 1;
#X connect 23 0 16 0;
#X connect 25 0 12 0;
#X connect 26 0 9 0;
#X connect 26 1 25 0;
#X connect 27 0 13 1;
#X connect 27 1 28 0;
#X connect 28 0 29 0;
#X connect 30 0 27 0;
#X connect 31 0 33 0;
#X connect 33 0 32 0;
#X connect 34 0 35 0;
#X connect 35 0 36 0;
#X connect 37 0 1 0;
