#N canvas 512 186 699 505 10;
#X obj 120 121 L16pay~;
#X msg 74 93 start;
#X obj 159 60 sig~ 1;
#X msg 276 103 \; pd dsp 1;
#X floatatom 158 13 5 0 0 0 - - -;
#X obj 120 188 L16decode;
#X obj 120 210 route 0 1;
#X floatatom 120 232 0 0 0 0 - - -;
#X obj 323 193 spigot;
#X obj 323 215 print;
#X obj 362 169 tgl 15 0 empty empty empty 17 7 0 10 -262144 -1 -1 0
1;
#X obj 120 143 rtpparse;
#X obj 158 32 t f f;
#X obj 219 303 * 32767;
#X obj 219 325 int;
#X obj 219 347 / 32767;
#X floatatom 219 369 0 0 0 0 - - -;
#X obj 129 392 -;
#X floatatom 129 414 5 0 0 0 - - -;
#X obj 284 328 int;
#X floatatom 284 372 0 0 0 0 - - -;
#X obj 238 272 t f f;
#X obj 284 306 * 32768;
#X obj 284 349 / 32768;
#X msg 210 13 bang;
#X obj 36 269 / 32767;
#X floatatom 36 313 5 0 0 0 - - -;
#X obj 36 291 * 32768;
#X connect 0 0 11 0;
#X connect 1 0 0 0;
#X connect 2 0 0 0;
#X connect 4 0 12 0;
#X connect 5 0 6 0;
#X connect 6 0 7 0;
#X connect 7 0 17 0;
#X connect 7 0 25 0;
#X connect 8 0 9 0;
#X connect 10 0 8 1;
#X connect 11 0 5 0;
#X connect 11 1 8 0;
#X connect 12 0 2 0;
#X connect 12 1 21 0;
#X connect 13 0 14 0;
#X connect 14 0 15 0;
#X connect 15 0 16 0;
#X connect 16 0 17 1;
#X connect 17 0 18 0;
#X connect 19 0 23 0;
#X connect 21 0 13 0;
#X connect 21 1 22 0;
#X connect 22 0 19 0;
#X connect 23 0 20 0;
#X connect 24 0 4 0;
#X connect 25 0 27 0;
#X connect 27 0 26 0;
