#N canvas 628 199 648 727 10;
#X obj 111 77 osc~ 440;
#X msg 25 36 \; pd dsp 1;
#X obj 255 257 table scope 256;
#X msg 268 134 start;
#X obj 114 441 dac~;
#X floatatom 145 47 5 0 0 0 - - -;
#X msg 146 264 bang;
#X obj 119 126 rtpL16pay~ 4;
#X obj 291 330 t b;
#X msg 271 304 bang;
#X obj 119 306 t a a;
#X obj 119 328 print tables;
#X obj 150 351 route 0;
#X obj 150 373 symbol;
#X msg 150 395 set \$1;
#X obj 224 329 tabplay~;
#X symbolatom 200 397 0 0 0 0 - - -;
#X obj 314 409 tabwrite~ scope;
#X obj 351 366 metro 100;
#X obj 353 340 tgl 15 0 empty empty empty 17 7 0 10 -262144 -1 -1 1
1;
#X obj 118 411 +~;
#X obj 112 101 +~;
#X obj 337 61 zexy;
#X obj 6 486 -~;
#X obj 32 447 z~;
#X obj 6 508 env~;
#X floatatom 6 530 5 0 0 0 - - -;
#X floatatom 44 426 5 0 0 0 - - -;
#X obj 75 483 z~;
#X floatatom 121 478 5 0 0 0 - - -;
#X obj 204 99 dirac~;
#X msg 215 49 bang;
#X obj 440 311 s scope;
#X msg 439 289 resize \$1;
#X floatatom 438 242 5 0 0 0 - - -;
#X obj 277 607 tabread scope;
#X obj 170 463 env~;
#X floatatom 170 485 5 0 0 0 - - -;
#X obj 278 475 t b b;
#X obj 278 497 i;
#X obj 278 519 until;
#X obj 278 541 i;
#X obj 278 563 t f f;
#X obj 312 543 + 1;
#X msg 323 522 0;
#X obj 278 585 t f f;
#X obj 277 629 pack;
#X obj 277 651 route 0;
#X obj 323 670 print samples;
#X msg 274 445 bang;
#X obj 438 261 t f f;
#X obj 119 284 rtpL16depay 4 1024;
#X connect 3 0 7 0;
#X connect 5 0 0 0;
#X connect 6 0 51 0;
#X connect 7 0 51 0;
#X connect 8 0 15 0;
#X connect 9 0 15 0;
#X connect 10 0 11 0;
#X connect 10 1 12 0;
#X connect 12 0 13 0;
#X connect 13 0 14 0;
#X connect 13 0 16 0;
#X connect 14 0 15 0;
#X connect 15 0 20 0;
#X connect 15 1 8 0;
#X connect 19 0 18 0;
#X connect 20 0 4 0;
#X connect 20 0 4 1;
#X connect 20 0 28 0;
#X connect 20 0 17 0;
#X connect 20 0 36 0;
#X connect 21 0 7 0;
#X connect 21 0 24 0;
#X connect 23 0 25 0;
#X connect 24 0 23 0;
#X connect 25 0 26 0;
#X connect 27 0 24 1;
#X connect 28 0 23 1;
#X connect 29 0 28 1;
#X connect 30 0 21 0;
#X connect 31 0 30 0;
#X connect 31 0 17 0;
#X connect 33 0 32 0;
#X connect 34 0 50 0;
#X connect 35 0 46 0;
#X connect 36 0 37 0;
#X connect 38 0 39 0;
#X connect 38 1 44 0;
#X connect 39 0 40 0;
#X connect 40 0 41 0;
#X connect 41 0 42 0;
#X connect 42 0 45 0;
#X connect 42 1 43 0;
#X connect 43 0 41 1;
#X connect 44 0 41 1;
#X connect 45 0 35 0;
#X connect 45 1 46 1;
#X connect 46 0 47 0;
#X connect 47 1 48 0;
#X connect 49 0 38 0;
#X connect 50 0 33 0;
#X connect 50 1 39 1;
#X connect 51 0 10 0;
