#N canvas 594 72 645 577 10;
#X obj 111 77 osc~ 440;
#X msg 25 36 \; pd dsp 1;
#X obj 255 257 table scope 256;
#X msg 27 84 start;
#X floatatom 145 47 5 0 0 0 - - -;
#X msg 146 264 bang;
#X obj 119 126 rtpL16pay~ 4;
#X obj 112 101 +~;
#X obj 337 61 zexy;
#X obj 119 284 rtpL16depay~ 4 1024 SM-;
#X obj 132 343 r~ SM-0;
#X obj 132 365 env~;
#X floatatom 132 387 5 0 0 0 - - -;
#X obj 192 365 env~;
#X floatatom 192 387 5 0 0 0 - - -;
#X obj 192 343 r~ SM-1;
#X obj 252 365 env~;
#X floatatom 252 387 5 0 0 0 - - -;
#X obj 252 343 r~ SM-2;
#X obj 312 365 env~;
#X floatatom 312 387 5 0 0 0 - - -;
#X obj 312 343 r~ SM-3;
#X obj 170 470 tabwrite~ scope;
#X msg 173 439 bang;
#X obj 82 443 r~ SM-0;
#X msg 87 423 set SM-\$1;
#X obj 82 465 env~;
#X floatatom 82 487 5 0 0 0 - - -;
#X obj 55 407 hradio 15 1 0 4 empty empty empty 0 -8 0 10 -262144 -1
-1 0;
#X obj 202 186 spigot;
#X obj 202 208 t a b;
#X msg 262 194 0;
#X msg 234 159 1;
#X obj 119 159 list split 12;
#X msg 337 211 resize \$1;
#X obj 337 233 s scope;
#X floatatom 338 180 5 0 0 0 - - -;
#X obj 359 128 r bum;
#X obj 202 230 print samples;
#X obj 204 81 osc~ 1500;
#X connect 0 0 7 0;
#X connect 3 0 6 0;
#X connect 4 0 0 0;
#X connect 5 0 9 0;
#X connect 6 0 9 0;
#X connect 6 0 33 0;
#X connect 7 0 6 0;
#X connect 10 0 11 0;
#X connect 11 0 12 0;
#X connect 13 0 14 0;
#X connect 15 0 13 0;
#X connect 16 0 17 0;
#X connect 18 0 16 0;
#X connect 19 0 20 0;
#X connect 21 0 19 0;
#X connect 23 0 22 0;
#X connect 24 0 22 0;
#X connect 24 0 26 0;
#X connect 25 0 24 0;
#X connect 26 0 27 0;
#X connect 28 0 25 0;
#X connect 29 0 30 0;
#X connect 30 0 38 0;
#X connect 30 1 31 0;
#X connect 31 0 29 1;
#X connect 32 0 29 1;
#X connect 33 1 29 0;
#X connect 34 0 35 0;
#X connect 36 0 34 0;
#X connect 37 0 32 0;
#X connect 39 0 6 2;
