#N canvas 117 467 1075 470 10;
#X obj 87 65 udpreceive 5000;
#X obj 73 204 env~;
#X floatatom 73 226 5 0 0 0 - - -;
#X msg 397 19 \; pd dsp 1;
#X obj 60 314 dac~;
#X obj 59 284 *~;
#X obj 86 284 *~;
#X obj 145 284 hsl 128 15 0 127 0 0 empty empty empty -2 -8 0 10 -262144
-1 -1 0 1;
#X obj 142 306 dbtorms;
#X obj 142 328 pack 0 50;
#X obj 142 350 line~;
#X obj 465 72 udpreceive 5001;
#X obj 465 124 unpackRTCP;
#X obj 330 282 packRTCP;
#X obj 330 304 spigot;
#X obj 330 326 udpsend;
#X obj 330 348 t f f;
#X obj 330 370 tgl 15 0 empty empty empty 17 7 0 10 -262144 -1 -1 0
1;
#X msg 386 326 disconnect \, connect localhost 5005;
#X obj 180 116 unpack 0 0;
#X floatatom 180 138 5 0 0 0 - - -;
#X floatatom 239 140 5 0 0 0 - - -;
#X obj 73 183 r~ \$0-0;
#X obj 217 341 osc~ 0.1;
#X obj 217 385 +~ 600;
#X obj 217 407 osc~;
#X obj 218 363 *~ 200;
#X obj 87 84 rtpL16depay~ 2 32768 \$0-;
#X msg 234 62 bang;
#X obj 465 145 print RTCP;
#X obj 464 101 t a a;
#N canvas 4 49 450 300 sender-report 0;
#X msg 22 70 128 200 0 6 122 230 54 36 212 236 168 99 195 182 2 133
178 133 241 242 0 0 246 16 3 216 64 0 129 202 0 12 122 230 54 36 1
28 117 115 101 114 49 49 52 51 56 55 48 56 49 52 64 104 111 115 116
45 99 55 51 98 52 52 54 102 6 9 71 83 116 114 101 97 109 101 114 0
0 0;
#X obj 22 144 unpackRTCP;
#X obj 22 166 print SR;
#X connect 0 0 1 0;
#X connect 1 0 2 0;
#X restore 626 78 pd sender-report;
#N canvas 4 49 843 527 receiver-report 0;
#X msg -2535 42 129 201 0 7 109 228 131 141 0 0 0 0 0 0 0 0 0 0 5 101
0 0 0 65 0 0 0 0 0 0 0 0 129 202 0 12 109 228 131 141 1 28 117 115
101 114 49 56 53 56 51 52 50 50 49 52 64 104 111 115 116 45 52 102
101 55 53 101 97 100 6 9 71 83 116 114 101 97 109 101 114 0 0 0;
#X msg -2548 141 129 201 0 7 109 228 131 141 0 0 0 0 0 0 0 0 0 0 37
1 0 0 0 90 0 0 0 0 0 0 0 0 129 202 0 12 109 228 131 141 1 28 117 115
101 114 49 56 53 56 51 52 50 50 49 52 64 104 111 115 116 45 52 102
101 55 53 101 97 100 6 9 71 83 116 114 101 97 109 101 114 0 0 0;
#X obj -2087 161 unpackRTCP;
#X obj -2087 183 print RR;
#X connect 0 0 2 0;
#X connect 1 0 2 0;
#X connect 2 0 3 0;
#X restore 625 101 pd receiver-report;
#X connect 0 0 27 0;
#X connect 1 0 2 0;
#X connect 5 0 4 0;
#X connect 6 0 4 1;
#X connect 7 0 8 0;
#X connect 8 0 9 0;
#X connect 9 0 10 0;
#X connect 10 0 6 1;
#X connect 10 0 5 1;
#X connect 11 0 30 0;
#X connect 12 0 29 0;
#X connect 13 0 14 0;
#X connect 14 0 15 0;
#X connect 15 0 16 0;
#X connect 16 0 17 0;
#X connect 16 1 14 1;
#X connect 18 0 15 0;
#X connect 19 0 20 0;
#X connect 19 1 21 0;
#X connect 22 0 1 0;
#X connect 22 0 5 0;
#X connect 23 0 26 0;
#X connect 24 0 25 0;
#X connect 25 0 6 0;
#X connect 26 0 24 0;
#X connect 27 1 19 0;
#X connect 28 0 27 1;
#X connect 30 0 12 0;
