#N canvas 344 380 932 497 10;
#X obj 76 203 udpsend;
#X obj 76 225 t f f;
#X obj 76 247 tgl 15 0 empty empty empty 17 7 0 10 -262144 -1 -1 1
1;
#X obj 76 181 spigot;
#X msg 137 202 disconnect \, connect localhost 5000;
#X obj 419 214 udpsend;
#X obj 419 236 t f f;
#X obj 419 258 tgl 15 0 empty empty empty 17 7 0 10 -262144 -1 -1 0
1;
#X obj 419 193 spigot;
#X obj 419 156 packRTCP;
#X msg 419 126 SDES SRC 1234 4321 \, SDES 0 CNAME MINT \, bang;
#X msg 476 215 disconnect \, connect localhost 5001;
#X msg 68 26 \; pd dsp 1;
#X msg 98 101 auto \$1;
#X obj 98 57 r pd;
#X obj 98 79 route dsp;
#X obj 19 63 osc~ 550;
#X obj 609 258 udpreceive 5005;
#X obj 609 300 unpackRTCP;
#X obj 609 325 print RTCP;
#X obj 609 280 t a b;
#X msg 655 280 ------------------------------;
#X obj 536 162 unpackRTCP;
#X obj 536 184 print;
#N canvas 384 330 605 387 backtalk 0;
#X obj 106 231 packRTCP;
#X msg 106 197 SDES SRC 49586 5029 \, SDES 0 CNAME userzmoelnig@ferrari
\, SDES 1 TOOL PureData \, bang;
#X obj 36 232 packRTCP;
#X obj 36 272 list append;
#X obj 36 327 outlet;
#X obj 36 66 inlet;
#X obj 36 88 t b b;
#X msg 36 116 RR SSRC 49586 5029 \, RR 0 SSRC 49586 5029 \, RR 0 fraction
0 \, RR 0 lost 0 \, RR 0 last_seq 2 \, RR 0 jitter 0 \, RR 0 lsr 0
\, RR 0 dlsr 0 \, bang;
#X connect 0 0 3 1;
#X connect 1 0 0 0;
#X connect 2 0 3 0;
#X connect 3 0 4 0;
#X connect 5 0 6 0;
#X connect 6 0 7 0;
#X connect 6 1 1 0;
#X connect 7 0 2 0;
#X restore 157 409 pd backtalk;
#X obj 157 461 unpackRTCP;
#X obj 157 483 print;
#X msg 157 383 bang;
#X obj 157 431 t a a;
#X obj 200 432 print data;
#X obj 236 463 print REJECT:::::::::::::;
#X obj 208 291 dac~;
#X obj 76 130 rtpL16pay~ 2;
#X obj 18 86 *~ 0.1;
#X connect 0 0 1 0;
#X connect 1 0 2 0;
#X connect 1 1 3 1;
#X connect 3 0 0 0;
#X connect 4 0 0 0;
#X connect 5 0 6 0;
#X connect 6 0 7 0;
#X connect 6 1 8 1;
#X connect 8 0 5 0;
#X connect 9 0 8 0;
#X connect 9 0 22 0;
#X connect 10 0 9 0;
#X connect 11 0 5 0;
#X connect 13 0 32 0;
#X connect 14 0 15 0;
#X connect 15 0 13 0;
#X connect 16 0 33 0;
#X connect 17 0 20 0;
#X connect 18 0 19 0;
#X connect 20 0 18 0;
#X connect 20 1 21 0;
#X connect 21 0 19 0;
#X connect 22 0 23 0;
#X connect 24 0 28 0;
#X connect 25 0 26 0;
#X connect 25 2 30 0;
#X connect 27 0 24 0;
#X connect 28 0 25 0;
#X connect 28 1 29 0;
#X connect 32 0 3 0;
#X connect 33 0 32 0;
